<svg id="visual" viewBox="0 0 540 960" width="540" height="960" xmlns="http://www.w3.org/2000/svg" xmlns:xlink="http://www.w3.org/1999/xlink" version="1.1"><rect x="0" y="0" width="540" height="960" fill="#001220"></rect><defs><linearGradient id="grad1_0" x1="0%" y1="0%" x2="100%" y2="100%"><stop offset="30%" stop-color="#fbae3c" stop-opacity="1"></stop><stop offset="70%" stop-color="#fbae3c" stop-opacity="1"></stop></linearGradient></defs><defs><linearGradient id="grad1_1" x1="0%" y1="0%" x2="100%" y2="100%"><stop offset="30%" stop-color="#fbae3c" stop-opacity="1"></stop><stop offset="70%" stop-color="#e1685e" stop-opacity="1"></stop></linearGradient></defs><defs><linearGradient id="grad1_2" x1="0%" y1="0%" x2="100%" y2="100%"><stop offset="30%" stop-color="#96446e" stop-opacity="1"></stop><stop offset="70%" stop-color="#e1685e" stop-opacity="1"></stop></linearGradient></defs><defs><linearGradient id="grad1_3" x1="0%" y1="0%" x2="100%" y2="100%"><stop offset="30%" stop-color="#96446e" stop-opacity="1"></stop><stop offset="70%" stop-color="#3d3056" stop-opacity="1"></stop></linearGradient></defs><defs><linearGradient id="grad1_4" x1="0%" y1="0%" x2="100%" y2="100%"><stop offset="30%" stop-color="#001220" stop-opacity="1"></stop><stop offset="70%" stop-color="#3d3056" stop-opacity="1"></stop></linearGradient></defs><defs><linearGradient id="grad2_0" x1="0%" y1="0%" x2="100%" y2="100%"><stop offset="30%" stop-color="#fbae3c" stop-opacity="1"></stop><stop offset="70%" stop-color="#fbae3c" stop-opacity="1"></stop></linearGradient></defs><defs><linearGradient id="grad2_1" x1="0%" y1="0%" x2="100%" y2="100%"><stop offset="30%" stop-color="#e1685e" stop-opacity="1"></stop><stop offset="70%" stop-color="#fbae3c" stop-opacity="1"></stop></linearGradient></defs><defs><linearGradient id="grad2_2" x1="0%" y1="0%" x2="100%" y2="100%"><stop offset="30%" stop-color="#e1685e" stop-opacity="1"></stop><stop offset="70%" stop-color="#96446e" stop-opacity="1"></stop></linearGradient></defs><defs><linearGradient id="grad2_3" x1="0%" y1="0%" x2="100%" y2="100%"><stop offset="30%" stop-color="#3d3056" stop-opacity="1"></stop><stop offset="70%" stop-color="#96446e" stop-opacity="1"></stop></linearGradient></defs><defs><linearGradient id="grad2_4" x1="0%" y1="0%" x2="100%" y2="100%"><stop offset="30%" stop-color="#3d3056" stop-opacity="1"></stop><stop offset="70%" stop-color="#001220" stop-opacity="1"></stop></linearGradient></defs><g transform="translate(540, 0)"><path d="M0 459C-59 449.2 -118 439.5 -173.4 418.5C-228.7 397.6 -280.3 365.4 -323.9 323.9C-367.4 282.3 -402.9 231.2 -424.1 175.7C-445.2 120.1 -452.1 60 -459 0L0 0Z" fill="#18223c"></path><path d="M0 367.2C-47.2 359.4 -94.4 351.6 -138.7 334.8C-182.9 318.1 -224.2 292.4 -259.1 259.1C-293.9 225.8 -322.3 185 -339.2 140.5C-356.2 96.1 -361.7 48 -367.2 0L0 0Z" fill="#683a67"></path><path d="M0 275.4C-35.4 269.5 -70.8 263.7 -104 251.1C-137.2 238.5 -168.2 219.3 -194.3 194.3C-220.4 169.4 -241.7 138.7 -254.4 105.4C-267.1 72.1 -271.3 36 -275.4 0L0 0Z" fill="#c0526a"></path><path d="M0 183.6C-23.6 179.7 -47.2 175.8 -69.3 167.4C-91.5 159 -112.1 146.2 -129.5 129.5C-147 112.9 -161.2 92.5 -169.6 70.3C-178.1 48 -180.8 24 -183.6 0L0 0Z" fill="#f6884d"></path><path d="M0 91.8C-11.8 89.8 -23.6 87.9 -34.7 83.7C-45.7 79.5 -56.1 73.1 -64.8 64.8C-73.5 56.5 -80.6 46.2 -84.8 35.1C-89 24 -90.4 12 -91.8 0L0 0Z" fill="#fbae3c"></path></g><g transform="translate(0, 960)"><path d="M0 -459C58.7 -447.2 117.4 -435.3 171.1 -413C224.7 -390.6 273.4 -357.7 317.5 -317.5C361.6 -277.3 401.2 -229.8 424.1 -175.7C446.9 -121.5 452.9 -60.8 459 0L0 0Z" fill="#18223c"></path><path d="M0 -367.2C47 -357.7 93.9 -348.3 136.8 -330.4C179.8 -312.5 218.7 -286.2 254 -254C289.3 -221.8 321 -183.8 339.2 -140.5C357.5 -97.2 362.4 -48.6 367.2 0L0 0Z" fill="#683a67"></path><path d="M0 -275.4C35.2 -268.3 70.4 -261.2 102.6 -247.8C134.8 -234.4 164 -214.6 190.5 -190.5C217 -166.4 240.7 -137.9 254.4 -105.4C268.1 -72.9 271.8 -36.5 275.4 0L0 0Z" fill="#c0526a"></path><path d="M0 -183.6C23.5 -178.9 47 -174.1 68.4 -165.2C89.9 -156.2 109.3 -143.1 127 -127C144.6 -110.9 160.5 -91.9 169.6 -70.3C178.8 -48.6 181.2 -24.3 183.6 0L0 0Z" fill="#f6884d"></path><path d="M0 -91.8C11.7 -89.4 23.5 -87.1 34.2 -82.6C44.9 -78.1 54.7 -71.5 63.5 -63.5C72.3 -55.5 80.2 -46 84.8 -35.1C89.4 -24.3 90.6 -12.2 91.8 0L0 0Z" fill="#fbae3c"></path></g></svg>