<svg id="visual" viewBox="0 0 540 960" width="540" height="960" xmlns="http://www.w3.org/2000/svg" xmlns:xlink="http://www.w3.org/1999/xlink" version="1.1"><rect x="0" y="0" width="540" height="960" fill="#001122"></rect><path d="M0 804L8.2 805.3C16.3 806.7 32.7 809.3 49 809.3C65.3 809.3 81.7 806.7 98 807.2C114.3 807.7 130.7 811.3 147 812.7C163.3 814 179.7 813 196 814.7C212.3 816.3 228.7 820.7 245.2 817.5C261.7 814.3 278.3 803.7 294.8 798.8C311.3 794 327.7 795 344 802.8C360.3 810.7 376.7 825.3 393 824C409.3 822.7 425.7 805.3 442 797.5C458.3 789.7 474.7 791.3 491 793.5C507.3 795.7 523.7 798.3 531.8 799.7L540 801L540 961L531.8 961C523.7 961 507.3 961 491 961C474.7 961 458.3 961 442 961C425.7 961 409.3 961 393 961C376.7 961 360.3 961 344 961C327.7 961 311.3 961 294.8 961C278.3 961 261.7 961 245.2 961C228.7 961 212.3 961 196 961C179.7 961 163.3 961 147 961C130.7 961 114.3 961 98 961C81.7 961 65.3 961 49 961C32.7 961 16.3 961 8.2 961L0 961Z" fill="#2bebce"></path><path d="M0 847L8.2 842C16.3 837 32.7 827 49 826C65.3 825 81.7 833 98 839.8C114.3 846.7 130.7 852.3 147 852.2C163.3 852 179.7 846 196 845.8C212.3 845.7 228.7 851.3 245.2 853C261.7 854.7 278.3 852.3 294.8 850.2C311.3 848 327.7 846 344 840.3C360.3 834.7 376.7 825.3 393 824.2C409.3 823 425.7 830 442 833.7C458.3 837.3 474.7 837.7 491 838.8C507.3 840 523.7 842 531.8 843L540 844L540 961L531.8 961C523.7 961 507.3 961 491 961C474.7 961 458.3 961 442 961C425.7 961 409.3 961 393 961C376.7 961 360.3 961 344 961C327.7 961 311.3 961 294.8 961C278.3 961 261.7 961 245.2 961C228.7 961 212.3 961 196 961C179.7 961 163.3 961 147 961C130.7 961 114.3 961 98 961C81.7 961 65.3 961 49 961C32.7 961 16.3 961 8.2 961L0 961Z" fill="#00cede"></path><path d="M0 880L8.2 878C16.3 876 32.7 872 49 868.5C65.3 865 81.7 862 98 861.3C114.3 860.7 130.7 862.3 147 863.2C163.3 864 179.7 864 196 861.5C212.3 859 228.7 854 245.2 852.7C261.7 851.3 278.3 853.7 294.8 859C311.3 864.3 327.7 872.7 344 874.5C360.3 876.3 376.7 871.7 393 871.7C409.3 871.7 425.7 876.3 442 873.3C458.3 870.3 474.7 859.7 491 855.5C507.3 851.3 523.7 853.7 531.8 854.8L540 856L540 961L531.8 961C523.7 961 507.3 961 491 961C474.7 961 458.3 961 442 961C425.7 961 409.3 961 393 961C376.7 961 360.3 961 344 961C327.7 961 311.3 961 294.8 961C278.3 961 261.7 961 245.2 961C228.7 961 212.3 961 196 961C179.7 961 163.3 961 147 961C130.7 961 114.3 961 98 961C81.7 961 65.3 961 49 961C32.7 961 16.3 961 8.2 961L0 961Z" fill="#00adda"></path><path d="M0 898L8.2 895.8C16.3 893.7 32.7 889.3 49 889.5C65.3 889.7 81.7 894.3 98 893C114.3 891.7 130.7 884.3 147 884.7C163.3 885 179.7 893 196 896.5C212.3 900 228.7 899 245.2 895.7C261.7 892.3 278.3 886.7 294.8 886C311.3 885.3 327.7 889.7 344 892.8C360.3 896 376.7 898 393 895.8C409.3 893.7 425.7 887.3 442 886.2C458.3 885 474.7 889 491 890.7C507.3 892.3 523.7 891.7 531.8 891.3L540 891L540 961L531.8 961C523.7 961 507.3 961 491 961C474.7 961 458.3 961 442 961C425.7 961 409.3 961 393 961C376.7 961 360.3 961 344 961C327.7 961 311.3 961 294.8 961C278.3 961 261.7 961 245.2 961C228.7 961 212.3 961 196 961C179.7 961 163.3 961 147 961C130.7 961 114.3 961 98 961C81.7 961 65.3 961 49 961C32.7 961 16.3 961 8.2 961L0 961Z" fill="#008bca"></path><path d="M0 915L8.2 914.5C16.3 914 32.7 913 49 913.8C65.3 914.7 81.7 917.3 98 916.8C114.3 916.3 130.7 912.7 147 910.5C163.3 908.3 179.7 907.7 196 906.8C212.3 906 228.7 905 245.2 905.7C261.7 906.3 278.3 908.7 294.8 909.8C311.3 911 327.7 911 344 911.5C360.3 912 376.7 913 393 911.7C409.3 910.3 425.7 906.7 442 905C458.3 903.3 474.7 903.7 491 904.5C507.3 905.3 523.7 906.7 531.8 907.3L540 908L540 961L531.8 961C523.7 961 507.3 961 491 961C474.7 961 458.3 961 442 961C425.7 961 409.3 961 393 961C376.7 961 360.3 961 344 961C327.7 961 311.3 961 294.8 961C278.3 961 261.7 961 245.2 961C228.7 961 212.3 961 196 961C179.7 961 163.3 961 147 961C130.7 961 114.3 961 98 961C81.7 961 65.3 961 49 961C32.7 961 16.3 961 8.2 961L0 961Z" fill="#1b67b3"></path></svg>